<?xml version="1.0" standalone="no"?>
<!DOCTYPE svg PUBLIC "-//W3C//DTD SVG 1.1//EN"
"http://www.w3.org/Graphics/SVG/1.1/DTD/svg11.dtd">
<!-- Created with dep2pict 2.35.0 -->
<svg xmlns:svg="http://www.w3.org/2000/svg" xmlns="http://www.w3.org/2000/svg" xmlns:xlink="http://www.w3.org/1999/xlink" width="527.02441" height="298.35352">
<rect x="0" y="0" width="527.02441" height="298.35352" style="fill:transparent;fill-opacity:1;" />
<g  transform="translate(0,114.89844) scale(2,2)">
<text id="word__N_0" x="12.5" y="-1.75977" font-style="normal" font-weight="normal" fill="black" font-size="12" font-family="Arial" text-anchor="middle" text-align="center">
</text>
<text id="word__N_1" x="56.5999" y="-14.4062" font-style="normal" font-weight="normal" fill="black" font-size="12" font-family="Arial" text-anchor="middle" text-align="center">
<tspan   x="56.5999" dy="12.8633">Drop</tspan>
</text>
<text id="subword__N_1" x="56.5999" y="-1.54297" fill="black" font-size="7" font-family="Arial" text-anchor="middle" text-align="center">
<tspan   x="56.5999" dy="8.33691">drop</tspan>
<tspan   x="56.5999" dy="8.33691">VERB</tspan>
<tspan   x="56.5999" dy="8.33691">VB</tspan>
<tspan   x="56.5999" dy="8.33691">VerbForm=Inf</tspan>
</text>
<text id="word__N_2" x="119.594" y="-14.4062" font-style="normal" font-weight="normal" fill="black" font-size="12" font-family="Arial" text-anchor="middle" text-align="center">
<tspan   x="119.594" dy="12.8633">the</tspan>
</text>
<text id="subword__N_2" x="119.594" y="-1.54297" fill="black" font-size="7" font-family="Arial" text-anchor="middle" text-align="center">
<tspan   x="119.594" dy="8.33691">the</tspan>
<tspan   x="119.594" dy="8.33691">DET</tspan>
<tspan   x="119.594" dy="8.33691">DT</tspan>
<tspan   x="119.594" dy="8.33691">Definite=Def</tspan>
<tspan   x="119.594" dy="8.33691">PronType=Art</tspan>
</text>
<text id="word__N_3" x="184.536" y="-14.4062" font-style="normal" font-weight="normal" fill="black" font-size="12" font-family="Arial" text-anchor="middle" text-align="center">
<tspan   x="184.536" dy="12.8633">mic</tspan>
</text>
<text id="subword__N_3" x="184.536" y="-1.54297" fill="black" font-size="7" font-family="Arial" text-anchor="middle" text-align="center">
<tspan   x="184.536" dy="8.33691">mic</tspan>
<tspan   x="184.536" dy="8.33691">NOUN</tspan>
<tspan   x="184.536" dy="8.33691">NN</tspan>
<tspan   x="184.536" dy="8.33691">SpaceAfter=No</tspan>
<tspan   x="184.536" dy="8.33691">Number=Sing</tspan>
</text>
<text id="word__N_4" x="239.797" y="-14.4062" font-style="normal" font-weight="normal" fill="black" font-size="12" font-family="Arial" text-anchor="middle" text-align="center">
<tspan   x="239.797" dy="12.8633">.</tspan>
</text>
<text id="subword__N_4" x="239.797" y="-1.54297" fill="black" font-size="7" font-family="Arial" text-anchor="middle" text-align="center">
<tspan   x="239.797" dy="8.33691">.</tspan>
<tspan   x="239.797" dy="8.33691">PUNCT</tspan>
<tspan   x="239.797" dy="8.33691">.</tspan>
</text>

<marker id="markerendword_0" markerWidth="5" markerHeight="5" markerUnits="userSpaceOnUse" orient="auto" refX="2" refY="2">
<path d="M0,0 l4,2 l-4,2 z" style="fill:black;"/>
</marker>
<text id="label__N_0__N_1__root" x="32" y="-23" style="fill:black;font-size:5px;font-family:Arial;text-anchor:middle;text-align:center" >root</text>
<path style="marker-end:url(#markerendword_0);" stroke="black" fill="none" d="M 12.50000,-12 12.50000,-17 A 3 3 0 0 1 15.50000,-20 L 48.59985,-20 A 3 3 0 0 1 51.59985,-17 L 51.59985,-13.40625" ></path>
<marker id="markerendword_1" markerWidth="5" markerHeight="5" markerUnits="userSpaceOnUse" orient="auto" refX="2" refY="2">
<path d="M0,0 l4,2 l-4,2 z" style="fill:black;"/>
</marker>
<text id="label__N_3__N_2__det" x="150.59448" y="-24.40625" style="fill:black;font-size:5px;font-family:Arial;text-anchor:middle;text-align:center" >det</text>
<path style="marker-end:url(#markerendword_1);" stroke="black" fill="none" d="M 182.03564,-13.40625 182.03564,-18.40625 A 3 3 0 0 0 179.03564,-21.40625 L 122.59448,-21.40625 A 3 3 0 0 0 119.59448,-18.40625 L 119.59448,-13.40625" ></path>
<marker id="markerendword_3" markerWidth="5" markerHeight="5" markerUnits="userSpaceOnUse" orient="auto" refX="2" refY="2">
<path d="M0,0 l4,2 l-4,2 z" style="fill:black;"/>
</marker>
<text id="label__N_1__N_3__obj" x="124.09985" y="-34.40625" style="fill:black;font-size:5px;font-family:Arial;text-anchor:middle;text-align:center" >obj</text>
<path style="marker-end:url(#markerendword_3);" stroke="black" fill="none" d="M 61.59985,-13.40625 61.59985,-28.40625 A 3 3 0 0 1 64.59985,-31.40625 L 184.03564,-31.40625 A 3 3 0 0 1 187.03564,-28.40625 L 187.03564,-13.40625" ></path>
<marker id="markerendword_5" markerWidth="5" markerHeight="5" markerUnits="userSpaceOnUse" orient="auto" refX="2" refY="2">
<path d="M0,0 l4,2 l-4,2 z" style="fill:black;"/>
</marker>
<text id="label__N_1__N_4__punct" x="148.09985" y="-44.40625" style="fill:black;font-size:5px;font-family:Arial;text-anchor:middle;text-align:center" >punct</text>
<path style="marker-end:url(#markerendword_5);" stroke="black" fill="none" d="M 56.59985,-13.40625 56.59985,-38.40625 A 3 3 0 0 1 59.59985,-41.40625 L 236.79712,-41.40625 A 3 3 0 0 1 239.79712,-38.40625 L 239.79712,-13.40625" ></path>

<marker id="markerendgroup_2" markerWidth="5" markerHeight="5" markerUnits="userSpaceOnUse" orient="auto" refX="2" refY="2">
<path d="M0,0 l4,2 l-4,2 z" style="fill:blue;"/>
</marker>
<text id="label__N_3__N_2__det" x="150.59448" y="57.66797" style="fill:blue;font-size:5px;font-family:Arial;text-anchor:middle;text-align:center" >det</text>
<path style="marker-end:url(#markerendgroup_2);" stroke="blue" fill="none" d="M 182.03564,43.14160 182.03564,49.14160 A 3 3 0 0 1 179.03564,52.14160 L 122.59448,52.14160 A 3 3 0 0 1 119.59448,49.14160 L 119.59448,43.14160" ></path>
<marker id="markerendgroup_4" markerWidth="5" markerHeight="5" markerUnits="userSpaceOnUse" orient="auto" refX="2" refY="2">
<path d="M0,0 l4,2 l-4,2 z" style="fill:blue;"/>
</marker>
<text id="label__N_1__N_3__obj" x="122.59985" y="67.66797" style="fill:blue;font-size:5px;font-family:Arial;text-anchor:middle;text-align:center" >obj</text>
<path style="marker-end:url(#markerendgroup_4);" stroke="blue" fill="none" d="M 59.09985,34.80469 59.09985,59.14160 A 3 3 0 0 0 62.09985,62.14160 L 184.03564,62.14160 A 3 3 0 0 0 187.03564,59.14160 L 187.03564,43.14160" ></path>
<marker id="markerendgroup_6" markerWidth="5" markerHeight="5" markerUnits="userSpaceOnUse" orient="auto" refX="2" refY="2">
<path d="M0,0 l4,2 l-4,2 z" style="fill:blue;"/>
</marker>
<text id="label__N_1__N_4__punct" x="146.59985" y="77.66797" style="fill:blue;font-size:5px;font-family:Arial;text-anchor:middle;text-align:center" >punct</text>
<path style="marker-end:url(#markerendgroup_6);" stroke="blue" fill="none" d="M 54.09985,34.80469 54.09985,69.14160 A 3 3 0 0 0 57.09985,72.14160 L 236.79712,72.14160 A 3 3 0 0 0 239.79712,69.14160 L 239.79712,26.46777" ></path>

</g>
</svg>
