<?xml version="1.0" encoding="UTF-8" standalone="no"?>
<!DOCTYPE svg PUBLIC "-//W3C//DTD SVG 1.1//EN"
 "http://www.w3.org/Graphics/SVG/1.1/DTD/svg11.dtd">
<!-- Generated by graphviz version 2.40.1 (20161225.0304)
 -->
<!-- Title: G Pages: 1 -->
<svg width="332pt" height="144pt"
 viewBox="0.00 0.00 332.00 144.00" xmlns="http://www.w3.org/2000/svg" xmlns:xlink="http://www.w3.org/1999/xlink">
<g id="graph0" class="graph" transform="scale(1 1) rotate(0) translate(4 140)">
<title>G</title>
<polygon fill="#ffffff" stroke="transparent" points="-4,4 -4,-140 328,-140 328,4 -4,4"/>
<!-- C4 -->
<g id="node1" class="node">
<title>C4</title>
<text text-anchor="middle" x="27" y="-87.3" font-family="Times,serif" font-size="14.00" fill="#000000">C4</text>
</g>
<!-- G1 -->
<g id="node2" class="node">
<title>G1</title>
<text text-anchor="middle" x="117" y="-114.3" font-family="Times,serif" font-size="14.00" fill="#000000">G1</text>
</g>
<!-- C4&#45;&gt;G1 -->
<g id="edge1" class="edge">
<title>C4&#45;&gt;G1</title>
<path fill="none" stroke="#000000" d="M54.003,-99.1009C62.204,-101.5612 71.3599,-104.308 80.095,-106.9285"/>
<polygon fill="#000000" stroke="#000000" points="79.121,-110.2904 89.705,-109.8115 81.1325,-103.5856 79.121,-110.2904"/>
</g>
<!-- G2 -->
<g id="node3" class="node">
<title>G2</title>
<text text-anchor="middle" x="117" y="-60.3" font-family="Times,serif" font-size="14.00" fill="#000000">G2</text>
</g>
<!-- C4&#45;&gt;G2 -->
<g id="edge2" class="edge">
<title>C4&#45;&gt;G2</title>
<path fill="none" stroke="#000000" d="M54.003,-82.8991C62.204,-80.4388 71.3599,-77.692 80.095,-75.0715"/>
<polygon fill="#000000" stroke="#000000" points="81.1325,-78.4144 89.705,-72.1885 79.121,-71.7096 81.1325,-78.4144"/>
</g>
<!-- CH4 -->
<g id="node6" class="node">
<title>CH4</title>
<text text-anchor="middle" x="297" y="-68.3" font-family="Times,serif" font-size="14.00" fill="#000000">CH4</text>
</g>
<!-- G1&#45;&gt;CH4 -->
<g id="edge5" class="edge">
<title>G1&#45;&gt;CH4</title>
<path fill="none" stroke="#000000" d="M144.3685,-115.4642C168.3489,-112.7935 203.9642,-107.7326 234,-99 242.8002,-96.4414 252.0073,-92.9787 260.5801,-89.3873"/>
<polygon fill="#000000" stroke="#000000" points="262.1596,-92.5171 269.9339,-85.3192 259.3678,-86.0979 262.1596,-92.5171"/>
</g>
<!-- G3 -->
<g id="node4" class="node">
<title>G3</title>
<text text-anchor="middle" x="207" y="-68.3" font-family="Times,serif" font-size="14.00" fill="#000000">G3</text>
</g>
<!-- G2&#45;&gt;G3 -->
<g id="edge3" class="edge">
<title>G2&#45;&gt;G3</title>
<path fill="none" stroke="#000000" d="M144.003,-66.4003C152.0277,-67.1136 160.9665,-67.9081 169.5309,-68.6694"/>
<polygon fill="#000000" stroke="#000000" points="169.4344,-72.1745 179.705,-69.5738 170.0542,-65.202 169.4344,-72.1745"/>
</g>
<!-- G4 -->
<g id="node5" class="node">
<title>G4</title>
<text text-anchor="middle" x="207" y="-14.3" font-family="Times,serif" font-size="14.00" fill="#000000">G4</text>
</g>
<!-- G2&#45;&gt;G4 -->
<g id="edge4" class="edge">
<title>G2&#45;&gt;G4</title>
<path fill="none" stroke="#000000" d="M144.003,-50.1985C152.3804,-45.9167 161.7541,-41.1257 170.6579,-36.5748"/>
<polygon fill="#000000" stroke="#000000" points="172.3936,-39.6185 179.705,-31.9508 169.2078,-33.3854 172.3936,-39.6185"/>
</g>
<!-- G3&#45;&gt;CH4 -->
<g id="edge6" class="edge">
<title>G3&#45;&gt;CH4</title>
<path fill="none" stroke="#000000" d="M234.003,-72C242.0277,-72 250.9665,-72 259.5309,-72"/>
<polygon fill="#000000" stroke="#000000" points="259.7051,-75.5001 269.705,-72 259.705,-68.5001 259.7051,-75.5001"/>
</g>
<!-- G4&#45;&gt;CH4 -->
<g id="edge7" class="edge">
<title>G4&#45;&gt;CH4</title>
<path fill="none" stroke="#000000" d="M234.003,-34.2018C242.4686,-39.2812 251.9516,-44.971 260.9389,-50.3634"/>
<polygon fill="#000000" stroke="#000000" points="259.3293,-53.4792 269.705,-55.623 262.9308,-47.4768 259.3293,-53.4792"/>
</g>
</g>
</svg>
