<?xml version="1.0" standalone="no"?>
<!DOCTYPE svg PUBLIC "-//W3C//DTD SVG 1.1//EN"
"http://www.w3.org/Graphics/SVG/1.1/DTD/svg11.dtd">
<!-- Created with dep2pict 2.30.2 -->
<svg xmlns:svg="http://www.w3.org/2000/svg" xmlns="http://www.w3.org/2000/svg" xmlns:xlink="http://www.w3.org/1999/xlink" width="441.54297" height="120.53906">
<rect x="0" y="0" width="441.54297" height="120.53906" style="fill:white;fill-opacity:1;" />
<g  transform="translate(0,74.89844) scale(2,2)">
<text id="word__N_1" x="22.5186" y="-14.4062" font-style="normal" font-weight="normal" fill="black" font-size="12" font-family="Arial" text-anchor="middle" text-align="center">
<tspan   x="22.5186" dy="12.8633">head</tspan>
</text>
<text id="subword__N_1" x="22.5186" y="-1.54297" fill="black" font-size="7" font-family="Arial" text-anchor="middle" text-align="center">
<tspan   x="22.5186" dy="8.33691">X</tspan>
</text>
<text id="word__N_2" x="62.373" y="-14.4062" font-style="normal" font-weight="normal" fill="black" font-size="12" font-family="Arial" text-anchor="middle" text-align="center">
<tspan   x="62.373" dy="12.8633">w2</tspan>
</text>
<text id="subword__N_2" x="62.373" y="-1.54297" fill="black" font-size="7" font-family="Arial" text-anchor="middle" text-align="center">
<tspan   x="62.373" dy="8.33691">X</tspan>
</text>
<text id="word__N_3" x="97.0889" y="-14.4062" font-style="normal" font-weight="normal" fill="black" font-size="12" font-family="Arial" text-anchor="middle" text-align="center">
<tspan   x="97.0889" dy="12.8633">w3</tspan>
</text>
<text id="subword__N_3" x="97.0889" y="-1.54297" fill="black" font-size="7" font-family="Arial" text-anchor="middle" text-align="center">
<tspan   x="97.0889" dy="8.33691">X</tspan>
</text>
<text id="word__N_4" x="131.831" y="-14.4062" font-style="normal" font-weight="normal" fill="black" font-size="12" font-family="Arial" text-anchor="middle" text-align="center">
<tspan   x="131.831" dy="12.8633">w4</tspan>
</text>
<text id="subword__N_4" x="131.831" y="-1.54297" fill="black" font-size="7" font-family="Arial" text-anchor="middle" text-align="center">
<tspan   x="131.831" dy="8.33691">X</tspan>
</text>
<text id="word__N_5" x="166.605" y="-14.4062" font-style="normal" font-weight="normal" fill="black" font-size="12" font-family="Arial" text-anchor="middle" text-align="center">
<tspan   x="166.605" dy="12.8633">w5</tspan>
</text>
<text id="subword__N_5" x="166.605" y="-1.54297" fill="black" font-size="7" font-family="Arial" text-anchor="middle" text-align="center">
<tspan   x="166.605" dy="8.33691">X</tspan>
</text>
<text id="word__N_6" x="201.395" y="-14.4062" font-style="normal" font-weight="normal" fill="black" font-size="12" font-family="Arial" text-anchor="middle" text-align="center">
<tspan   x="201.395" dy="12.8633">w6</tspan>
</text>
<text id="subword__N_6" x="201.395" y="-1.54297" fill="black" font-size="7" font-family="Arial" text-anchor="middle" text-align="center">
<tspan   x="201.395" dy="8.33691">X</tspan>
</text>

<marker id="markerendword_0" markerWidth="5" markerHeight="5" markerUnits="userSpaceOnUse" orient="auto" refX="2" refY="2">
<path d="M0,0 l4,2 l-4,2 z" style="fill:black;"/>
</marker>
<text id="label__N_1__N_2__fixed" x="41.01855" y="-24.40625" style="fill:black;font-size:5px;font-family:Arial;text-anchor:middle;text-align:center" >fixed</text>
<path style="marker-end:url(#markerendword_0);" stroke="black" fill="none" d="M 22.51855,-13.40625 22.51855,-18.40625 A 3 3 0 0 1 25.51855,-21.40625 L 56.87305,-21.40625 A 3 3 0 0 1 59.87305,-18.40625 L 59.87305,-13.40625" ></path>
<marker id="markerendword_1" markerWidth="5" markerHeight="5" markerUnits="userSpaceOnUse" orient="auto" refX="2" refY="2">
<path d="M0,0 l4,2 l-4,2 z" style="fill:black;"/>
</marker>
<text id="label__N_2__N_3__fixed" x="79.37305" y="-24.40625" style="fill:black;font-size:5px;font-family:Arial;text-anchor:middle;text-align:center" >fixed</text>
<path style="marker-end:url(#markerendword_1);" stroke="black" fill="none" d="M 64.87305,-13.40625 64.87305,-18.40625 A 3 3 0 0 1 67.87305,-21.40625 L 91.58887,-21.40625 A 3 3 0 0 1 94.58887,-18.40625 L 94.58887,-13.40625" ></path>
<marker id="markerendword_2" markerWidth="5" markerHeight="5" markerUnits="userSpaceOnUse" orient="auto" refX="2" refY="2">
<path d="M0,0 l4,2 l-4,2 z" style="fill:black;"/>
</marker>
<text id="label__N_3__N_4__fixed" x="114.08887" y="-24.40625" style="fill:black;font-size:5px;font-family:Arial;text-anchor:middle;text-align:center" >fixed</text>
<path style="marker-end:url(#markerendword_2);" stroke="black" fill="none" d="M 99.58887,-13.40625 99.58887,-18.40625 A 3 3 0 0 1 102.58887,-21.40625 L 126.33105,-21.40625 A 3 3 0 0 1 129.33105,-18.40625 L 129.33105,-13.40625" ></path>
<marker id="markerendword_3" markerWidth="5" markerHeight="5" markerUnits="userSpaceOnUse" orient="auto" refX="2" refY="2">
<path d="M0,0 l4,2 l-4,2 z" style="fill:black;"/>
</marker>
<text id="label__N_4__N_5__fixed" x="148.83105" y="-24.40625" style="fill:black;font-size:5px;font-family:Arial;text-anchor:middle;text-align:center" >fixed</text>
<path style="marker-end:url(#markerendword_3);" stroke="black" fill="none" d="M 134.33105,-13.40625 134.33105,-18.40625 A 3 3 0 0 1 137.33105,-21.40625 L 161.10547,-21.40625 A 3 3 0 0 1 164.10547,-18.40625 L 164.10547,-13.40625" ></path>
<marker id="markerendword_4" markerWidth="5" markerHeight="5" markerUnits="userSpaceOnUse" orient="auto" refX="2" refY="2">
<path d="M0,0 l4,2 l-4,2 z" style="fill:black;"/>
</marker>
<text id="label__N_5__N_6__fixed" x="185.10547" y="-24.40625" style="fill:black;font-size:5px;font-family:Arial;text-anchor:middle;text-align:center" >fixed</text>
<path style="marker-end:url(#markerendword_4);" stroke="black" fill="none" d="M 169.10547,-13.40625 169.10547,-18.40625 A 3 3 0 0 1 172.10547,-21.40625 L 198.39453,-21.40625 A 3 3 0 0 1 201.39453,-18.40625 L 201.39453,-13.40625" ></path>


</g>
</svg>
