<?xml version="1.0" standalone="no"?>
<!DOCTYPE svg PUBLIC "-//W3C//DTD SVG 1.1//EN"
"http://www.w3.org/Graphics/SVG/1.1/DTD/svg11.dtd">
<!-- Created with dep2pict 2.30.2 -->
<svg xmlns:svg="http://www.w3.org/2000/svg" xmlns="http://www.w3.org/2000/svg" xmlns:xlink="http://www.w3.org/1999/xlink" width="303.04297" height="140.53906">
<rect x="0" y="0" width="303.04297" height="140.53906" style="fill:white;fill-opacity:1;" />
<g  transform="translate(0,94.89844) scale(2,2)">
<text id="word__N_1" x="22.5186" y="-14.4062" font-style="normal" font-weight="normal" fill="black" font-size="12" font-family="Arial" text-anchor="middle" text-align="center">
<tspan   x="22.5186" dy="12.8633">head</tspan>
</text>
<text id="subword__N_1" x="22.5186" y="-1.54297" fill="black" font-size="7" font-family="Arial" text-anchor="middle" text-align="center">
<tspan   x="22.5186" dy="8.33691">X</tspan>
</text>
<text id="word__N_2" x="62.5371" y="-14.4062" font-style="normal" font-weight="normal" fill="black" font-size="12" font-family="Arial" text-anchor="middle" text-align="center">
<tspan   x="62.5371" dy="12.8633">w2</tspan>
</text>
<text id="subword__N_2" x="62.5371" y="-1.54297" fill="black" font-size="7" font-family="Arial" text-anchor="middle" text-align="center">
<tspan   x="62.5371" dy="8.33691">X</tspan>
</text>
<text id="word__N_3" x="97.417" y="-14.4062" font-style="normal" font-weight="normal" fill="black" font-size="12" font-family="Arial" text-anchor="middle" text-align="center">
<tspan   x="97.417" dy="12.8633">w3</tspan>
</text>
<text id="subword__N_3" x="97.417" y="-1.54297" fill="black" font-size="7" font-family="Arial" text-anchor="middle" text-align="center">
<tspan   x="97.417" dy="8.33691">X</tspan>
</text>
<text id="word__N_4" x="132.159" y="-14.4062" font-style="normal" font-weight="normal" fill="black" font-size="12" font-family="Arial" text-anchor="middle" text-align="center">
<tspan   x="132.159" dy="12.8633">w4</tspan>
</text>
<text id="subword__N_4" x="132.159" y="-1.54297" fill="black" font-size="7" font-family="Arial" text-anchor="middle" text-align="center">
<tspan   x="132.159" dy="8.33691">X</tspan>
</text>

<marker id="markerendword_0" markerWidth="5" markerHeight="5" markerUnits="userSpaceOnUse" orient="auto" refX="2" refY="2">
<path d="M0,0 l4,2 l-4,2 z" style="fill:black;"/>
</marker>
<text id="label__N_1__N_2__fixed" x="40.01855" y="-24.40625" style="fill:black;font-size:5px;font-family:Arial;text-anchor:middle;text-align:center" >fixed</text>
<path style="marker-end:url(#markerendword_0);" stroke="black" fill="none" d="M 22.51855,-13.40625 22.51855,-18.40625 A 3 3 0 0 1 25.51855,-21.40625 L 54.53711,-21.40625 A 3 3 0 0 1 57.53711,-18.40625 L 57.53711,-13.40625" ></path>
<marker id="markerendword_1" markerWidth="5" markerHeight="5" markerUnits="userSpaceOnUse" orient="auto" refX="2" refY="2">
<path d="M0,0 l4,2 l-4,2 z" style="fill:black;"/>
</marker>
<text id="label__N_2__N_3__fixed" x="82.03711" y="-24.40625" style="fill:black;font-size:5px;font-family:Arial;text-anchor:middle;text-align:center" >fixed</text>
<path style="marker-end:url(#markerendword_1);" stroke="black" fill="none" d="M 67.53711,-13.40625 67.53711,-18.40625 A 3 3 0 0 1 70.53711,-21.40625 L 94.41699,-21.40625 A 3 3 0 0 1 97.41699,-18.40625 L 97.41699,-13.40625" ></path>
<marker id="markerendword_2" markerWidth="5" markerHeight="5" markerUnits="userSpaceOnUse" orient="auto" refX="2" refY="2">
<path d="M0,0 l4,2 l-4,2 z" style="fill:black;"/>
</marker>
<text id="label__N_2__N_4__fixed" x="97.03711" y="-34.40625" style="fill:black;font-size:5px;font-family:Arial;text-anchor:middle;text-align:center" >fixed</text>
<path style="marker-end:url(#markerendword_2);" stroke="black" fill="none" d="M 62.53711,-13.40625 62.53711,-28.40625 A 3 3 0 0 1 65.53711,-31.40625 L 129.15918,-31.40625 A 3 3 0 0 1 132.15918,-28.40625 L 132.15918,-13.40625" ></path>


</g>
</svg>
