<?xml version="1.0" encoding="UTF-8" standalone="no"?>
<!DOCTYPE svg PUBLIC "-//W3C//DTD SVG 1.1//EN"
 "http://www.w3.org/Graphics/SVG/1.1/DTD/svg11.dtd">
<!-- Generated by graphviz version 2.40.1 (20161225.0304)
 -->
<!-- Title: G Pages: 1 -->
<svg width="62pt" height="221pt"
 viewBox="0.00 0.00 62.00 221.00" xmlns="http://www.w3.org/2000/svg" xmlns:xlink="http://www.w3.org/1999/xlink">
<g id="graph0" class="graph" transform="scale(1 1) rotate(0) translate(4 217)">
<title>G</title>
<polygon fill="#ffffff" stroke="transparent" points="-4,4 -4,-217 58,-217 58,4 -4,4"/>
<!-- N_0 -->
<g id="node1" class="node">
<title>N_0</title>
<path fill="none" stroke="#000000" d="M12,-176.5C12,-176.5 42,-176.5 42,-176.5 48,-176.5 54,-182.5 54,-188.5 54,-188.5 54,-200.5 54,-200.5 54,-206.5 48,-212.5 42,-212.5 42,-212.5 12,-212.5 12,-212.5 6,-212.5 0,-206.5 0,-200.5 0,-200.5 0,-188.5 0,-188.5 0,-182.5 6,-176.5 12,-176.5"/>
<text text-anchor="start" x="22" y="-191.3" font-family="Times,serif" font-weight="bold" font-size="14.00" fill="#000000">A</text>
</g>
<!-- N_1 -->
<g id="node2" class="node">
<title>N_1</title>
<path fill="none" stroke="#000000" d="M12,-88.5C12,-88.5 42,-88.5 42,-88.5 48,-88.5 54,-94.5 54,-100.5 54,-100.5 54,-112.5 54,-112.5 54,-118.5 48,-124.5 42,-124.5 42,-124.5 12,-124.5 12,-124.5 6,-124.5 0,-118.5 0,-112.5 0,-112.5 0,-100.5 0,-100.5 0,-94.5 6,-88.5 12,-88.5"/>
<text text-anchor="start" x="22.5" y="-103.3" font-family="Times,serif" font-weight="bold" font-size="14.00" fill="#000000">B</text>
</g>
<!-- N_0&#45;&gt;N_1 -->
<g id="edge1" class="edge">
<title>N_0&#45;&gt;N_1</title>
<path fill="none" stroke="#000000" d="M27,-176.2663C27,-164.3492 27,-148.5384 27,-134.9817"/>
<polygon fill="#000000" stroke="#000000" points="30.5001,-134.7103 27,-124.7103 23.5001,-134.7103 30.5001,-134.7103"/>
<text text-anchor="middle" x="39.5" y="-146.8" font-family="Times,serif" font-size="14.00" fill="#000000">X:Y</text>
</g>
<!-- N_2 -->
<g id="node3" class="node">
<title>N_2</title>
<path fill="none" stroke="#000000" d="M12,-.5C12,-.5 42,-.5 42,-.5 48,-.5 54,-6.5 54,-12.5 54,-12.5 54,-24.5 54,-24.5 54,-30.5 48,-36.5 42,-36.5 42,-36.5 12,-36.5 12,-36.5 6,-36.5 0,-30.5 0,-24.5 0,-24.5 0,-12.5 0,-12.5 0,-6.5 6,-.5 12,-.5"/>
<text text-anchor="start" x="22" y="-15.3" font-family="Times,serif" font-weight="bold" font-size="14.00" fill="#000000">C</text>
</g>
<!-- N_1&#45;&gt;N_2 -->
<g id="edge2" class="edge">
<title>N_1&#45;&gt;N_2</title>
<path fill="none" stroke="#000000" d="M27,-88.2663C27,-76.3492 27,-60.5384 27,-46.9817"/>
<polygon fill="#000000" stroke="#000000" points="30.5001,-46.7103 27,-36.7103 23.5001,-46.7103 30.5001,-46.7103"/>
<text text-anchor="middle" x="38.5" y="-58.8" font-family="Times,serif" font-size="14.00" fill="#000000">Z:Y</text>
</g>
</g>
</svg>
