<?xml version="1.0" encoding="UTF-8" standalone="no"?>
<!DOCTYPE svg PUBLIC "-//W3C//DTD SVG 1.1//EN"
 "http://www.w3.org/Graphics/SVG/1.1/DTD/svg11.dtd">
<!-- Generated by graphviz version 2.40.1 (20161225.0304)
 -->
<!-- Title: G Pages: 1 -->
<svg width="70pt" height="133pt"
 viewBox="0.00 0.00 69.81 133.00" xmlns="http://www.w3.org/2000/svg" xmlns:xlink="http://www.w3.org/1999/xlink">
<g id="graph0" class="graph" transform="scale(1 1) rotate(0) translate(4 129)">
<title>G</title>
<polygon fill="#ffffff" stroke="transparent" points="-4,4 -4,-129 65.8062,-129 65.8062,4 -4,4"/>
<!-- N_0 -->
<g id="node1" class="node">
<title>N_0</title>
<path fill="none" stroke="#000000" d="M19.8062,-88.5C19.8062,-88.5 49.8062,-88.5 49.8062,-88.5 55.8062,-88.5 61.8062,-94.5 61.8062,-100.5 61.8062,-100.5 61.8062,-112.5 61.8062,-112.5 61.8062,-118.5 55.8062,-124.5 49.8062,-124.5 49.8062,-124.5 19.8062,-124.5 19.8062,-124.5 13.8062,-124.5 7.8062,-118.5 7.8062,-112.5 7.8062,-112.5 7.8062,-100.5 7.8062,-100.5 7.8062,-94.5 13.8062,-88.5 19.8062,-88.5"/>
<text text-anchor="start" x="29.8062" y="-103.3" font-family="Times,serif" font-weight="bold" font-size="14.00" fill="#000000">A</text>
</g>
<!-- N_1 -->
<g id="node2" class="node">
<title>N_1</title>
<path fill="none" stroke="#000000" d="M19.8062,-.5C19.8062,-.5 49.8062,-.5 49.8062,-.5 55.8062,-.5 61.8062,-6.5 61.8062,-12.5 61.8062,-12.5 61.8062,-24.5 61.8062,-24.5 61.8062,-30.5 55.8062,-36.5 49.8062,-36.5 49.8062,-36.5 19.8062,-36.5 19.8062,-36.5 13.8062,-36.5 7.8062,-30.5 7.8062,-24.5 7.8062,-24.5 7.8062,-12.5 7.8062,-12.5 7.8062,-6.5 13.8062,-.5 19.8062,-.5"/>
<text text-anchor="start" x="30.3062" y="-15.3" font-family="Times,serif" font-weight="bold" font-size="14.00" fill="#000000">B</text>
</g>
<!-- N_0&#45;&gt;N_1 -->
<g id="edge1" class="edge">
<title>N_0&#45;&gt;N_1</title>
<path fill="none" stroke="#000000" d="M13.6253,-88.2794C8.8239,-82.9284 4.3846,-76.6967 1.8062,-70 -1.5564,-61.2669 1.3066,-52.4436 6.5075,-44.6271"/>
<polygon fill="#000000" stroke="#000000" points="9.4092,-46.601 12.8845,-36.5924 3.9263,-42.2492 9.4092,-46.601"/>
<text text-anchor="middle" x="7.3062" y="-58.8" font-family="Times,serif" font-size="14.00" fill="#000000">X</text>
</g>
<!-- N_1&#45;&gt;N_0 -->
<g id="edge2" class="edge">
<title>N_1&#45;&gt;N_0</title>
<path fill="none" stroke="#000000" d="M34.8062,-36.7103C34.8062,-48.6224 34.8062,-64.4321 34.8062,-77.9917"/>
<polygon fill="#000000" stroke="#000000" points="31.3063,-78.2663 34.8062,-88.2663 38.3063,-78.2664 31.3063,-78.2663"/>
<text text-anchor="middle" x="40.3062" y="-58.8" font-family="Times,serif" font-size="14.00" fill="#000000">Y</text>
</g>
<!-- N_1&#45;&gt;N_0 -->
<g id="edge3" class="edge">
<title>N_1&#45;&gt;N_0</title>
<path fill="none" stroke="#000000" d="M42.0757,-36.7856C44.0128,-42.5221 45.8356,-48.9404 46.8062,-55 48.0239,-62.6032 47.1556,-70.7526 45.4374,-78.274"/>
<polygon fill="#000000" stroke="#000000" points="42.0315,-77.4563 42.6837,-88.031 48.7683,-79.3577 42.0315,-77.4563"/>
<text text-anchor="middle" x="51.3062" y="-58.8" font-family="Times,serif" font-size="14.00" fill="#000000">Z</text>
</g>
</g>
</svg>
