<?xml version="1.0" standalone="no"?>
<!DOCTYPE svg PUBLIC "-//W3C//DTD SVG 1.1//EN"
"http://www.w3.org/Graphics/SVG/1.1/DTD/svg11.dtd">
<!-- Created with dep2pict 2.31.0 -->
<svg xmlns:svg="http://www.w3.org/2000/svg" xmlns="http://www.w3.org/2000/svg" xmlns:xlink="http://www.w3.org/1999/xlink" width="772.02051" height="177.21289">
<rect x="0" y="0" width="772.02051" height="177.21289" style="fill:white;fill-opacity:1;" />
<g  transform="translate(0,114.89844) scale(2,2)">
<text id="word__N_1" x="21.8894" y="-14.4062" font-style="normal" font-weight="normal" fill="black" font-size="12" font-family="Arial" text-anchor="middle" text-align="center">
<tspan   x="21.8894" dy="12.8633">Max</tspan>
</text>
<text id="subword__N_1" x="21.8894" y="-1.54297" fill="black" font-size="7" font-family="Arial" text-anchor="middle" text-align="center">
<tspan   x="21.8894" dy="8.33691">Max</tspan>
<tspan   x="21.8894" dy="8.33691">PROPN</tspan>
</text>
<text id="word__N_2" x="66.3325" y="-14.4062" font-style="normal" font-weight="normal" fill="black" font-size="12" font-family="Arial" text-anchor="middle" text-align="center">
<tspan   x="66.3325" dy="12.8633">vient</tspan>
</text>
<text id="subword__N_2" x="66.3325" y="-1.54297" fill="black" font-size="7" font-family="Arial" text-anchor="middle" text-align="center">
<tspan   x="66.3325" dy="8.33691">venir</tspan>
<tspan   x="66.3325" dy="8.33691">VERB</tspan>
</text>
<text id="word__N_3" x="105.936" y="-14.4062" font-style="normal" font-weight="normal" fill="black" font-size="12" font-family="Arial" text-anchor="middle" text-align="center">
<tspan   x="105.936" dy="12.8633">à</tspan>
</text>
<text id="subword__N_3" x="105.936" y="-1.54297" fill="black" font-size="7" font-family="Arial" text-anchor="middle" text-align="center">
<tspan   x="105.936" dy="8.33691">à</tspan>
<tspan   x="105.936" dy="8.33691">ADP</tspan>
</text>
<text id="word__N_4" x="145.961" y="-14.4062" font-style="normal" font-weight="normal" fill="black" font-size="12" font-family="Arial" text-anchor="middle" text-align="center">
<tspan   x="145.961" dy="12.8633">Paris</tspan>
</text>
<text id="subword__N_4" x="145.961" y="-1.54297" fill="black" font-size="7" font-family="Arial" text-anchor="middle" text-align="center">
<tspan   x="145.961" dy="8.33691">Paris</tspan>
<tspan   x="145.961" dy="8.33691">PROPN</tspan>
</text>
<text id="word__N_5" x="190.546" y="-14.4062" font-style="normal" font-weight="normal" fill="black" font-size="12" font-family="Arial" text-anchor="middle" text-align="center">
<tspan   x="190.546" dy="12.8633">et</tspan>
</text>
<text id="subword__N_5" x="190.546" y="-1.54297" fill="black" font-size="7" font-family="Arial" text-anchor="middle" text-align="center">
<tspan   x="190.546" dy="8.33691">et</tspan>
<tspan   x="190.546" dy="8.33691">CCONJ</tspan>
</text>
<text id="word__N_6" x="231.484" y="-14.4062" font-style="normal" font-weight="normal" fill="black" font-size="12" font-family="Arial" text-anchor="middle" text-align="center">
<tspan   x="231.484" dy="12.8633">va</tspan>
</text>
<text id="subword__N_6" x="231.484" y="-1.54297" fill="black" font-size="7" font-family="Arial" text-anchor="middle" text-align="center">
<tspan   x="231.484" dy="8.33691">aller</tspan>
<tspan   x="231.484" dy="8.33691">VERB</tspan>
</text>
<text id="word__N_7" x="273.388" y="-14.4062" font-style="normal" font-weight="normal" fill="black" font-size="12" font-family="Arial" text-anchor="middle" text-align="center">
<tspan   x="273.388" dy="12.8633">dans</tspan>
</text>
<text id="subword__N_7" x="273.388" y="-1.54297" fill="black" font-size="7" font-family="Arial" text-anchor="middle" text-align="center">
<tspan   x="273.388" dy="8.33691">dans</tspan>
<tspan   x="273.388" dy="8.33691">ADP</tspan>
</text>
<text id="word__N_8" x="312.622" y="-14.4062" font-style="normal" font-weight="normal" fill="black" font-size="12" font-family="Arial" text-anchor="middle" text-align="center">
<tspan   x="312.622" dy="12.8633">le</tspan>
</text>
<text id="subword__N_8" x="312.622" y="-1.54297" fill="black" font-size="7" font-family="Arial" text-anchor="middle" text-align="center">
<tspan   x="312.622" dy="8.33691">le</tspan>
<tspan   x="312.622" dy="8.33691">DET</tspan>
</text>
<text id="word__N_9" x="356.646" y="-14.4062" font-style="normal" font-weight="normal" fill="black" font-size="12" font-family="Arial" text-anchor="middle" text-align="center">
<tspan   x="356.646" dy="12.8633">musée</tspan>
</text>
<text id="subword__N_9" x="356.646" y="-1.54297" fill="black" font-size="7" font-family="Arial" text-anchor="middle" text-align="center">
<tspan   x="356.646" dy="8.33691">musée</tspan>
<tspan   x="356.646" dy="8.33691">NOUN</tspan>
</text>

<marker id="markerendword_0" markerWidth="5" markerHeight="5" markerUnits="userSpaceOnUse" orient="auto" refX="2" refY="2">
<path d="M0,0 l4,2 l-4,2 z" style="fill:black;"/>
</marker>
<text id="label__N_2__N_1__nsubj" x="41.38940" y="-24.40625" style="fill:black;font-size:5px;font-family:Arial;text-anchor:middle;text-align:center" >nsubj</text>
<path style="marker-end:url(#markerendword_0);" stroke="black" fill="none" d="M 61.33252,-13.40625 61.33252,-18.40625 A 3 3 0 0 0 58.33252,-21.40625 L 24.88940,-21.40625 A 3 3 0 0 0 21.88940,-18.40625 L 21.88940,-13.40625" ></path>
<marker id="markerendword_1" markerWidth="5" markerHeight="5" markerUnits="userSpaceOnUse" orient="auto" refX="2" refY="2">
<path d="M0,0 l4,2 l-4,2 z" style="fill:black;"/>
</marker>
<text id="label__N_4__N_3__case" x="124.43579" y="-24.40625" style="fill:black;font-size:5px;font-family:Arial;text-anchor:middle;text-align:center" >case</text>
<path style="marker-end:url(#markerendword_1);" stroke="black" fill="none" d="M 143.46094,-13.40625 143.46094,-18.40625 A 3 3 0 0 0 140.46094,-21.40625 L 108.93579,-21.40625 A 3 3 0 0 0 105.93579,-18.40625 L 105.93579,-13.40625" ></path>
<marker id="markerendword_3" markerWidth="5" markerHeight="5" markerUnits="userSpaceOnUse" orient="auto" refX="2" refY="2">
<path d="M0,0 l4,2 l-4,2 z" style="fill:black;"/>
</marker>
<text id="label__N_6__N_5__cc" x="208.04565" y="-24.40625" style="fill:black;font-size:5px;font-family:Arial;text-anchor:middle;text-align:center" >cc</text>
<path style="marker-end:url(#markerendword_3);" stroke="black" fill="none" d="M 226.48413,-13.40625 226.48413,-18.40625 A 3 3 0 0 0 223.48413,-21.40625 L 193.54565,-21.40625 A 3 3 0 0 0 190.54565,-18.40625 L 190.54565,-13.40625" ></path>
<marker id="markerendword_6" markerWidth="5" markerHeight="5" markerUnits="userSpaceOnUse" orient="auto" refX="2" refY="2">
<path d="M0,0 l4,2 l-4,2 z" style="fill:black;"/>
</marker>
<text id="label__N_9__N_8__det" x="332.12183" y="-24.40625" style="fill:black;font-size:5px;font-family:Arial;text-anchor:middle;text-align:center" >det</text>
<path style="marker-end:url(#markerendword_6);" stroke="black" fill="none" d="M 351.64600,-13.40625 351.64600,-18.40625 A 3 3 0 0 0 348.64600,-21.40625 L 315.62183,-21.40625 A 3 3 0 0 0 312.62183,-18.40625 L 312.62183,-13.40625" ></path>
<marker id="markerendword_2" markerWidth="5" markerHeight="5" markerUnits="userSpaceOnUse" orient="auto" refX="2" refY="2">
<path d="M0,0 l4,2 l-4,2 z" style="fill:black;"/>
</marker>
<text id="label__N_2__N_4__obl:loc" x="109.83252" y="-34.40625" style="fill:black;font-size:5px;font-family:Arial;text-anchor:middle;text-align:center" >obl:loc</text>
<path style="marker-end:url(#markerendword_2);" stroke="black" fill="none" d="M 71.33252,-13.40625 71.33252,-28.40625 A 3 3 0 0 1 74.33252,-31.40625 L 145.46094,-31.40625 A 3 3 0 0 1 148.46094,-28.40625 L 148.46094,-13.40625" ></path>
<marker id="markerendword_5" markerWidth="5" markerHeight="5" markerUnits="userSpaceOnUse" orient="auto" refX="2" refY="2">
<path d="M0,0 l4,2 l-4,2 z" style="fill:black;"/>
</marker>
<text id="label__N_9__N_7__case" x="314.88770" y="-34.40625" style="fill:black;font-size:5px;font-family:Arial;text-anchor:middle;text-align:center" >case</text>
<path style="marker-end:url(#markerendword_5);" stroke="black" fill="none" d="M 356.64600,-13.40625 356.64600,-28.40625 A 3 3 0 0 0 353.64600,-31.40625 L 276.38770,-31.40625 A 3 3 0 0 0 273.38770,-28.40625 L 273.38770,-13.40625" ></path>
<marker id="markerendword_7" markerWidth="5" markerHeight="5" markerUnits="userSpaceOnUse" orient="auto" refX="2" refY="2">
<path d="M0,0 l4,2 l-4,2 z" style="fill:black;"/>
</marker>
<text id="label__N_6__N_9__obl:loc" x="298.98413" y="-44.40625" style="fill:black;font-size:5px;font-family:Arial;text-anchor:middle;text-align:center" >obl:loc</text>
<path style="marker-end:url(#markerendword_7);" stroke="black" fill="none" d="M 236.48413,-13.40625 236.48413,-38.40625 A 3 3 0 0 1 239.48413,-41.40625 L 358.64600,-41.40625 A 3 3 0 0 1 361.64600,-38.40625 L 361.64600,-13.40625" ></path>
<marker id="markerendword_4" markerWidth="5" markerHeight="5" markerUnits="userSpaceOnUse" orient="auto" refX="2" refY="2">
<path d="M0,0 l4,2 l-4,2 z" style="fill:black;"/>
</marker>
<text id="label__N_2__N_6__conj" x="148.83252" y="-44.40625" style="fill:black;font-size:5px;font-family:Arial;text-anchor:middle;text-align:center" >conj</text>
<path style="marker-end:url(#markerendword_4);" stroke="black" fill="none" d="M 66.33252,-13.40625 66.33252,-38.40625 A 3 3 0 0 1 69.33252,-41.40625 L 228.48413,-41.40625 A 3 3 0 0 1 231.48413,-38.40625 L 231.48413,-13.40625" ></path>


</g>
</svg>
