<?xml version="1.0" standalone="no"?>
<!DOCTYPE svg PUBLIC "-//W3C//DTD SVG 1.1//EN"
"http://www.w3.org/Graphics/SVG/1.1/DTD/svg11.dtd">
<!-- Created with dep2pict 2.31.0 -->
<svg xmlns:svg="http://www.w3.org/2000/svg" xmlns="http://www.w3.org/2000/svg" xmlns:xlink="http://www.w3.org/1999/xlink" width="593.95508" height="188.33203">
<rect x="0" y="0" width="593.95508" height="188.33203" style="fill:white;fill-opacity:1;" />
<g  transform="translate(0,94.89844) scale(2,2)">
<text id="word__N_1" x="21.8894" y="-14.4062" font-style="normal" font-weight="normal" fill="black" font-size="12" font-family="Arial" text-anchor="middle" text-align="center">
<tspan   x="21.8894" dy="12.8633">Max</tspan>
</text>
<text id="subword__N_1" x="21.8894" y="-1.54297" fill="black" font-size="7" font-family="Arial" text-anchor="middle" text-align="center">
<tspan   x="21.8894" dy="8.33691">Max</tspan>
<tspan   x="21.8894" dy="8.33691">PROPN</tspan>
</text>
<text id="word__N_2" x="71.3276" y="-14.4062" font-style="normal" font-weight="normal" fill="black" font-size="12" font-family="Arial" text-anchor="middle" text-align="center">
<tspan   x="71.3276" dy="12.8633">achète</tspan>
</text>
<text id="subword__N_2" x="71.3276" y="-1.54297" fill="black" font-size="7" font-family="Arial" text-anchor="middle" text-align="center">
<tspan   x="71.3276" dy="8.33691">acheter</tspan>
<tspan   x="71.3276" dy="8.33691">VERB</tspan>
</text>
<text id="word__N_3" x="120.486" y="-14.4062" font-style="normal" font-weight="normal" fill="black" font-size="12" font-family="Arial" text-anchor="middle" text-align="center">
<tspan   x="120.486" dy="12.8633">et</tspan>
</text>
<text id="subword__N_3" x="120.486" y="-1.54297" fill="black" font-size="7" font-family="Arial" text-anchor="middle" text-align="center">
<tspan   x="120.486" dy="8.33691">et</tspan>
<tspan   x="120.486" dy="8.33691">CCONJ</tspan>
</text>
<text id="word__N_4" x="169.796" y="-14.4062" font-style="normal" font-weight="normal" fill="black" font-size="12" font-family="Arial" text-anchor="middle" text-align="center">
<tspan   x="169.796" dy="12.8633">mange</tspan>
</text>
<text id="subword__N_4" x="169.796" y="-1.54297" fill="black" font-size="7" font-family="Arial" text-anchor="middle" text-align="center">
<tspan   x="169.796" dy="8.33691">manger</tspan>
<tspan   x="169.796" dy="8.33691">VERB</tspan>
</text>
<text id="word__N_5" x="216.875" y="-14.4062" font-style="normal" font-weight="normal" fill="black" font-size="12" font-family="Arial" text-anchor="middle" text-align="center">
<tspan   x="216.875" dy="12.8633">une</tspan>
</text>
<text id="subword__N_5" x="216.875" y="-1.54297" fill="black" font-size="7" font-family="Arial" text-anchor="middle" text-align="center">
<tspan   x="216.875" dy="8.33691">un</tspan>
<tspan   x="216.875" dy="8.33691">DET</tspan>
</text>
<text id="word__N_6" x="265.615" y="-14.4062" font-style="normal" font-weight="normal" fill="black" font-size="12" font-family="Arial" text-anchor="middle" text-align="center">
<tspan   x="265.615" dy="12.8633">pomme</tspan>
</text>
<text id="subword__N_6" x="265.615" y="-1.54297" fill="black" font-size="7" font-family="Arial" text-anchor="middle" text-align="center">
<tspan   x="265.615" dy="8.33691">pomme</tspan>
<tspan   x="265.615" dy="8.33691">NOUN</tspan>
</text>

<marker id="markerendword_0" markerWidth="5" markerHeight="5" markerUnits="userSpaceOnUse" orient="auto" refX="2" refY="2">
<path d="M0,0 l4,2 l-4,2 z" style="fill:black;"/>
</marker>
<text id="label__N_2__N_1__nsubj" x="44.88940" y="-24.40625" style="fill:black;font-size:5px;font-family:Arial;text-anchor:middle;text-align:center" >nsubj</text>
<path style="marker-end:url(#markerendword_0);" stroke="black" fill="none" d="M 68.82764,-13.40625 68.82764,-18.40625 A 3 3 0 0 0 65.82764,-21.40625 L 24.88940,-21.40625 A 3 3 0 0 0 21.88940,-18.40625 L 21.88940,-13.40625" ></path>
<marker id="markerendword_1" markerWidth="5" markerHeight="5" markerUnits="userSpaceOnUse" orient="auto" refX="2" refY="2">
<path d="M0,0 l4,2 l-4,2 z" style="fill:black;"/>
</marker>
<text id="label__N_4__N_3__cc" x="142.48560" y="-24.40625" style="fill:black;font-size:5px;font-family:Arial;text-anchor:middle;text-align:center" >cc</text>
<path style="marker-end:url(#markerendword_1);" stroke="black" fill="none" d="M 164.79590,-13.40625 164.79590,-18.40625 A 3 3 0 0 0 161.79590,-21.40625 L 123.48560,-21.40625 A 3 3 0 0 0 120.48560,-18.40625 L 120.48560,-13.40625" ></path>
<marker id="markerendword_3" markerWidth="5" markerHeight="5" markerUnits="userSpaceOnUse" orient="auto" refX="2" refY="2">
<path d="M0,0 l4,2 l-4,2 z" style="fill:black;"/>
</marker>
<text id="label__N_6__N_5__det" x="239.87500" y="-24.40625" style="fill:black;font-size:5px;font-family:Arial;text-anchor:middle;text-align:center" >det</text>
<path style="marker-end:url(#markerendword_3);" stroke="black" fill="none" d="M 263.11523,-13.40625 263.11523,-18.40625 A 3 3 0 0 0 260.11523,-21.40625 L 219.87500,-21.40625 A 3 3 0 0 0 216.87500,-18.40625 L 216.87500,-13.40625" ></path>
<marker id="markerendword_2" markerWidth="5" markerHeight="5" markerUnits="userSpaceOnUse" orient="auto" refX="2" refY="2">
<path d="M0,0 l4,2 l-4,2 z" style="fill:black;"/>
</marker>
<text id="label__N_2__N_4__conj" x="121.32764" y="-34.40625" style="fill:black;font-size:5px;font-family:Arial;text-anchor:middle;text-align:center" >conj</text>
<path style="marker-end:url(#markerendword_2);" stroke="black" fill="none" d="M 73.82764,-13.40625 73.82764,-28.40625 A 3 3 0 0 1 76.82764,-31.40625 L 166.79590,-31.40625 A 3 3 0 0 1 169.79590,-28.40625 L 169.79590,-13.40625" ></path>
<marker id="markerendword_4" markerWidth="5" markerHeight="5" markerUnits="userSpaceOnUse" orient="auto" refX="2" refY="2">
<path d="M0,0 l4,2 l-4,2 z" style="fill:black;"/>
</marker>
<text id="label__N_4__N_6__obj" x="221.29590" y="-34.40625" style="fill:black;font-size:5px;font-family:Arial;text-anchor:middle;text-align:center" >obj</text>
<path style="marker-end:url(#markerendword_4);" stroke="black" fill="none" d="M 174.79590,-13.40625 174.79590,-28.40625 A 3 3 0 0 1 177.79590,-31.40625 L 265.11523,-31.40625 A 3 3 0 0 1 268.11523,-28.40625 L 268.11523,-13.40625" ></path>

<marker id="markerendgroup_5" markerWidth="5" markerHeight="5" markerUnits="userSpaceOnUse" orient="auto" refX="2" refY="2">
<path d="M0,0 l4,2 l-4,2 z" style="fill:blue;"/>
</marker>
<text id="label__N_2__N_6__obj" x="168.32764" y="32.65723" style="fill:blue;font-size:5px;font-family:Arial;text-anchor:middle;text-align:center" >obj</text>
<path style="marker-end:url(#markerendgroup_5);" stroke="blue" fill="none" d="M 71.32764,18.13086 71.32764,24.13086 A 3 3 0 0 0 74.32764,27.13086 L 262.61523,27.13086 A 3 3 0 0 0 265.61523,24.13086 L 265.61523,18.13086" ></path>

</g>
</svg>
