<?xml version="1.0" encoding="UTF-8" standalone="no"?>
<!DOCTYPE svg PUBLIC "-//W3C//DTD SVG 1.1//EN"
 "http://www.w3.org/Graphics/SVG/1.1/DTD/svg11.dtd">
<!-- Generated by graphviz version 2.38.0 (20140413.2041)
 -->
<!-- Title: G Pages: 1 -->
<svg width="160pt" height="63pt"
 viewBox="0.00 0.00 160.00 63.09" xmlns="http://www.w3.org/2000/svg" xmlns:xlink="http://www.w3.org/1999/xlink">
<g id="graph0" class="graph" transform="scale(1 1) rotate(0) translate(4 59.0948)">
<title>G</title>
<polygon fill="white" stroke="none" points="-4,4 -4,-59.0948 156,-59.0948 156,4 -4,4"/>
<!-- A -->
<g id="node1" class="node"><title>A</title>
<ellipse fill="none" stroke="black" cx="27" cy="-24.0948" rx="27" ry="18"/>
<text text-anchor="middle" x="27" y="-20.3948" font-family="Times,serif" font-size="14.00">A</text>
</g>
<!-- B -->
<g id="node2" class="node"><title>B</title>
<ellipse fill="none" stroke="black" cx="125" cy="-24.0948" rx="27" ry="18"/>
<text text-anchor="middle" x="125" y="-20.3948" font-family="Times,serif" font-size="14.00">B</text>
</g>
<!-- B&#45;&gt;A -->
<g id="edge1" class="edge"><title>B&#45;&gt;A</title>
<path fill="none" stroke="black" d="M102.031,-33.7834C95.1185,-36.366 87.3646,-38.7974 80,-40.0948 72.8751,-41.35 65.3587,-40.4219 58.323,-38.5045"/>
<polygon fill="black" stroke="black" points="59.0549,-35.0556 48.4603,-35.1265 56.7867,-41.678 59.0549,-35.0556"/>
<text text-anchor="middle" x="76" y="-43.8948" font-family="Times,serif" font-size="14.00">x</text>
</g>
<!-- B&#45;&gt;A -->
<g id="edge2" class="edge"><title>B&#45;&gt;A</title>
<path fill="none" stroke="black" d="M98.0901,-21.6637C89.7628,-21.1332 80.4953,-20.8055 72,-21.0948 69.4556,-21.1815 66.83,-21.2962 64.187,-21.4303"/>
<polygon fill="black" stroke="black" points="63.8213,-17.9456 54.0432,-22.0247 64.2309,-24.9336 63.8213,-17.9456"/>
<text text-anchor="middle" x="76" y="-24.8948" font-family="Times,serif" font-size="14.00">y</text>
</g>
<!-- B&#45;&gt;A -->
<g id="edge3" class="edge"><title>B&#45;&gt;A</title>
<path fill="none" stroke="black" d="M105.092,-11.6596C97.5997,-7.4297 88.7056,-3.23291 80,-1.09482 71.0845,1.09482 61.7841,-1.34184 53.555,-5.33247"/>
<polygon fill="black" stroke="black" points="51.7446,-2.33577 44.7969,-10.3346 55.2163,-8.41424 51.7446,-2.33577"/>
<text text-anchor="middle" x="76" y="-4.89482" font-family="Times,serif" font-size="14.00">z</text>
</g>
</g>
</svg>
