<?xml version="1.0" encoding="UTF-8" standalone="no"?>
<!DOCTYPE svg PUBLIC "-//W3C//DTD SVG 1.1//EN"
 "http://www.w3.org/Graphics/SVG/1.1/DTD/svg11.dtd">
<!-- Generated by graphviz version 2.38.0 (20140413.2041)
 -->
<!-- Title: G Pages: 1 -->
<svg width="160pt" height="63pt"
 viewBox="0.00 0.00 160.00 63.09" xmlns="http://www.w3.org/2000/svg" xmlns:xlink="http://www.w3.org/1999/xlink">
<g id="graph0" class="graph" transform="scale(1 1) rotate(0) translate(4 59.0948)">
<title>G</title>
<polygon fill="white" stroke="none" points="-4,4 -4,-59.0948 156,-59.0948 156,4 -4,4"/>
<!-- A -->
<g id="node1" class="node"><title>A</title>
<ellipse fill="none" stroke="black" cx="27" cy="-24.0948" rx="27" ry="18"/>
<text text-anchor="middle" x="27" y="-20.3948" font-family="Times,serif" font-size="14.00">A</text>
</g>
<!-- B -->
<g id="node2" class="node"><title>B</title>
<ellipse fill="none" stroke="black" cx="125" cy="-24.0948" rx="27" ry="18"/>
<text text-anchor="middle" x="125" y="-20.3948" font-family="Times,serif" font-size="14.00">B</text>
</g>
<!-- A&#45;&gt;B -->
<g id="edge1" class="edge"><title>A&#45;&gt;B</title>
<path fill="none" stroke="black" d="M49.9692,-33.7834C56.8815,-36.366 64.6354,-38.7974 72,-40.0948 79.1249,-41.35 86.6413,-40.4219 93.677,-38.5045"/>
<polygon fill="black" stroke="black" points="95.2133,-41.678 103.54,-35.1265 92.9451,-35.0556 95.2133,-41.678"/>
<text text-anchor="middle" x="76" y="-43.8948" font-family="Times,serif" font-size="14.00">x</text>
</g>
<!-- A&#45;&gt;B -->
<g id="edge2" class="edge"><title>A&#45;&gt;B</title>
<path fill="none" stroke="black" d="M53.9099,-21.6637C62.2372,-21.1332 71.5047,-20.8055 80,-21.0948 82.5444,-21.1815 85.17,-21.2962 87.813,-21.4303"/>
<polygon fill="black" stroke="black" points="87.7691,-24.9336 97.9568,-22.0247 88.1787,-17.9456 87.7691,-24.9336"/>
<text text-anchor="middle" x="76" y="-24.8948" font-family="Times,serif" font-size="14.00">y</text>
</g>
<!-- A&#45;&gt;B -->
<g id="edge3" class="edge"><title>A&#45;&gt;B</title>
<path fill="none" stroke="black" d="M46.9077,-11.6596C54.4003,-7.4297 63.2944,-3.23291 72,-1.09482 80.9155,1.09482 90.2159,-1.34184 98.445,-5.33247"/>
<polygon fill="black" stroke="black" points="96.7837,-8.41424 107.203,-10.3346 100.255,-2.33577 96.7837,-8.41424"/>
<text text-anchor="middle" x="76" y="-4.89482" font-family="Times,serif" font-size="14.00">z</text>
</g>
</g>
</svg>
