<?xml version="1.0" standalone="no"?>
<!DOCTYPE svg PUBLIC "-//W3C//DTD SVG 1.1//EN"
"http://www.w3.org/Graphics/SVG/1.1/DTD/svg11.dtd">
<!-- Created with dep2pict 2.34.2 -->
<svg xmlns:svg="http://www.w3.org/2000/svg" xmlns="http://www.w3.org/2000/svg" xmlns:xlink="http://www.w3.org/1999/xlink" width="393.30469" height="157.21289">
<rect x="0" y="0" width="393.30469" height="157.21289" style="fill:transparent;fill-opacity:1;" />
<g  transform="translate(0,94.89844) scale(2,2)">
<text id="word__N_0" x="13.4951" y="-14.4062" font-style="normal" font-weight="normal" fill="black" font-size="12" font-family="Arial" text-anchor="middle" text-align="center">
<tspan   x="13.4951" dy="12.8633">_</tspan>
</text>
<text id="word__N_1" x="44.1475" y="-14.4062" font-style="normal" font-weight="normal" fill="black" font-size="12" font-family="Arial" text-anchor="middle" text-align="center">
<tspan   x="44.1475" dy="12.8633">Je</tspan>
</text>
<text id="subword__N_1" x="44.1475" y="-1.54297" fill="black" font-size="7" font-family="Arial" text-anchor="middle" text-align="center">
<tspan   x="44.1475" dy="8.33691">il</tspan>
<tspan   x="44.1475" dy="8.33691">PRO</tspan>
</text>
<text id="word__N_2" x="81.5586" y="-14.4062" font-style="normal" font-weight="normal" fill="black" font-size="12" font-family="Arial" text-anchor="middle" text-align="center">
<tspan   x="81.5586" dy="12.8633">suis</tspan>
</text>
<text id="subword__N_2" x="81.5586" y="-1.54297" fill="black" font-size="7" font-family="Arial" text-anchor="middle" text-align="center">
<tspan   x="81.5586" dy="8.33691">suivre</tspan>
<tspan   x="81.5586" dy="8.33691">VERB</tspan>
</text>
<text id="word__N_3" x="121.19" y="-14.4062" font-style="normal" font-weight="normal" fill="black" font-size="12" font-family="Arial" text-anchor="middle" text-align="center">
<tspan   x="121.19" dy="12.8633">une</tspan>
</text>
<text id="subword__N_3" x="121.19" y="-1.54297" fill="black" font-size="7" font-family="Arial" text-anchor="middle" text-align="center">
<tspan   x="121.19" dy="8.33691">un</tspan>
<tspan   x="121.19" dy="8.33691">DET</tspan>
</text>
<text id="word__N_4" x="167.61" y="-14.4062" font-style="normal" font-weight="normal" fill="black" font-size="12" font-family="Arial" text-anchor="middle" text-align="center">
<tspan   x="167.61" dy="12.8633">licorne</tspan>
</text>
<text id="subword__N_4" x="167.61" y="-1.54297" fill="black" font-size="7" font-family="Arial" text-anchor="middle" text-align="center">
<tspan   x="167.61" dy="8.33691">licorne</tspan>
<tspan   x="167.61" dy="8.33691">NOUN</tspan>
</text>

<marker id="markerendword_0" markerWidth="5" markerHeight="5" markerUnits="userSpaceOnUse" orient="auto" refX="2" refY="2">
<path d="M0,0 l4,2 l-4,2 z" style="fill:black;"/>
</marker>
<text id="label__N_2__N_1__suj" x="60.14746" y="-24.40625" style="fill:black;font-size:5px;font-family:Arial;text-anchor:middle;text-align:center" >suj</text>
<path style="marker-end:url(#markerendword_0);" stroke="black" fill="none" d="M 76.55859,-13.40625 76.55859,-18.40625 A 3 3 0 0 0 73.55859,-21.40625 L 47.14746,-21.40625 A 3 3 0 0 0 44.14746,-18.40625 L 44.14746,-13.40625" ></path>
<marker id="markerendword_2" markerWidth="5" markerHeight="5" markerUnits="userSpaceOnUse" orient="auto" refX="2" refY="2">
<path d="M0,0 l4,2 l-4,2 z" style="fill:black;"/>
</marker>
<text id="label__N_4__N_3__det" x="142.69043" y="-24.40625" style="fill:black;font-size:5px;font-family:Arial;text-anchor:middle;text-align:center" >det</text>
<path style="marker-end:url(#markerendword_2);" stroke="black" fill="none" d="M 165.11035,-13.40625 165.11035,-18.40625 A 3 3 0 0 0 162.11035,-21.40625 L 124.19043,-21.40625 A 3 3 0 0 0 121.19043,-18.40625 L 121.19043,-13.40625" ></path>
<marker id="markerendword_1" markerWidth="5" markerHeight="5" markerUnits="userSpaceOnUse" orient="auto" refX="2" refY="2">
<path d="M0,0 l4,2 l-4,2 z" style="fill:black;"/>
</marker>
<text id="label__N_0__N_2__root" x="47.49512" y="-34.40625" style="fill:black;font-size:5px;font-family:Arial;text-anchor:middle;text-align:center" >root</text>
<path style="marker-end:url(#markerendword_1);" stroke="black" fill="none" d="M 13.49512,-13.40625 13.49512,-28.40625 A 3 3 0 0 1 16.49512,-31.40625 L 78.55859,-31.40625 A 3 3 0 0 1 81.55859,-28.40625 L 81.55859,-13.40625" ></path>
<marker id="markerendword_3" markerWidth="5" markerHeight="5" markerUnits="userSpaceOnUse" orient="auto" refX="2" refY="2">
<path d="M0,0 l4,2 l-4,2 z" style="fill:black;"/>
</marker>
<text id="label__N_2__N_4__obj" x="128.05859" y="-34.40625" style="fill:black;font-size:5px;font-family:Arial;text-anchor:middle;text-align:center" >obj</text>
<path style="marker-end:url(#markerendword_3);" stroke="black" fill="none" d="M 86.55859,-13.40625 86.55859,-28.40625 A 3 3 0 0 1 89.55859,-31.40625 L 167.11035,-31.40625 A 3 3 0 0 1 170.11035,-28.40625 L 170.11035,-13.40625" ></path>


</g>
</svg>
